<svg id="svg" version="1.1" xmlns="http://www.w3.org/2000/svg" xmlns:xlink="http://www.w3.org/1999/xlink" width="400" height="279.3969849246231" viewBox="0, 0, 400,279.3969849246231"><g id="svgg"><path id="path0" d="M34.218 90.632 C 21.521 91.608,11.525 101.590,10.389 114.429 C 10.152 117.103,10.160 172.978,10.397 175.544 C 11.471 187.157,19.484 196.177,31.112 198.862 L 32.747 199.240 115.284 199.287 L 197.821 199.333 197.864 144.893 L 197.906 90.452 116.918 90.476 C 72.374 90.489,35.159 90.559,34.218 90.632 M285.319 123.953 C 281.732 124.699,279.702 128.556,281.172 131.833 C 283.182 136.311,289.675 136.312,291.775 131.833 C 293.685 127.762,289.801 123.021,285.319 123.953 M85.329 124.967 C 87.944 125.945,89.477 128.902,88.721 131.506 C 87.254 136.552,80.318 137.063,78.137 132.286 C 76.125 127.881,80.693 123.233,85.329 124.967 M286.897 128.703 L 286.942 131.862 287.688 131.174 C 288.466 130.457,289.050 130.297,289.225 130.752 C 289.344 131.063,286.850 133.668,286.432 133.668 C 285.995 133.668,283.554 131.096,283.679 130.768 C 283.863 130.289,284.460 130.453,285.211 131.191 L 285.930 131.896 285.930 128.790 C 285.930 125.547,285.953 125.416,286.509 125.495 C 286.838 125.542,286.853 125.668,286.897 128.703 M81.756 127.373 C 80.139 129.001,80.329 130.008,81.973 128.522 L 82.663 127.898 82.709 130.850 C 82.757 133.973,82.892 134.509,83.501 134.003 C 83.707 133.833,83.752 133.267,83.752 130.884 C 83.752 127.716,83.758 127.701,84.590 128.559 C 85.210 129.199,85.930 129.355,85.930 128.848 C 85.930 128.489,83.597 126.131,83.241 126.131 C 83.103 126.131,82.435 126.690,81.756 127.373 M255.444 144.221 L 255.444 161.642 258.710 161.642 L 261.977 161.642 261.977 154.692 L 261.977 147.742 268.970 147.699 L 275.963 147.655 275.963 144.556 L 275.963 141.457 268.970 141.414 L 261.977 141.370 261.977 137.184 L 261.977 132.998 269.765 132.998 L 277.554 132.998 277.554 129.899 L 277.554 126.801 266.499 126.801 L 255.444 126.801 255.444 144.221 M296.147 144.225 L 296.147 161.649 299.288 161.603 L 302.429 161.558 302.471 144.179 L 302.514 126.801 299.331 126.801 L 296.147 126.801 296.147 144.225 M51.424 134.087 L 51.424 141.039 58.710 141.039 L 65.997 141.039 65.997 134.087 L 65.997 127.136 69.263 127.136 L 72.529 127.136 72.529 144.556 L 72.529 161.977 69.263 161.977 L 65.997 161.977 65.997 154.606 L 65.997 147.236 58.710 147.236 L 51.424 147.236 51.424 154.606 L 51.424 161.977 48.157 161.977 L 44.891 161.977 44.891 144.556 L 44.891 127.136 48.157 127.136 L 51.424 127.136 51.424 134.087 M99.118 133.710 C 99.077 137.326,98.986 140.454,98.916 140.662 C 98.699 141.303,99.196 141.094,99.780 140.299 C 101.960 137.333,107.269 136.530,111.287 138.558 C 121.045 143.484,119.781 159.323,109.386 162.381 C 105.787 163.439,101.362 162.237,99.660 159.739 C 98.997 158.765,98.827 158.931,98.827 160.553 L 98.827 161.977 95.812 161.977 L 92.797 161.977 92.797 144.668 C 92.797 135.148,92.848 127.309,92.909 127.247 C 92.970 127.186,94.409 127.136,96.106 127.136 L 99.192 127.136 99.118 133.710 M317.438 137.347 C 309.782 139.227,305.817 148.187,309.392 155.528 C 313.532 164.026,325.835 164.781,331.314 156.872 L 332.007 155.871 329.367 154.550 L 326.728 153.228 326.482 153.624 C 323.459 158.505,315.348 157.252,314.471 151.768 L 314.363 151.089 323.369 151.089 L 332.375 151.089 332.278 148.786 C 331.925 140.405,325.417 135.388,317.438 137.347 M138.161 137.773 C 143.545 139.054,147.513 145.143,146.661 150.821 L 146.546 151.591 137.599 151.591 L 128.652 151.591 128.750 152.136 C 129.721 157.502,137.673 158.987,140.546 154.339 C 140.993 153.616,140.757 153.569,143.705 154.968 C 146.584 156.334,146.465 156.163,145.490 157.528 C 139.208 166.332,125.048 163.610,122.714 153.150 C 121.022 145.560,125.600 138.790,133.333 137.449 C 134.096 137.316,137.085 137.518,138.161 137.773 M168.564 137.992 C 169.276 138.308,169.357 138.396,169.249 138.731 C 169.181 138.941,168.806 140.192,168.414 141.511 C 167.566 144.371,167.756 144.136,166.573 143.792 C 163.761 142.975,160.950 144.129,159.688 146.620 C 158.896 148.184,158.800 149.171,158.797 155.821 L 158.794 161.977 155.611 161.977 L 152.429 161.977 152.429 150.084 L 152.429 138.191 155.444 138.191 L 158.459 138.191 158.459 139.866 C 158.459 141.666,158.571 141.857,159.114 140.979 C 160.860 138.154,165.575 136.664,168.564 137.992 M85.091 138.926 C 85.611 139.184,85.998 139.549,86.347 140.113 L 86.851 140.928 86.898 151.452 L 86.944 161.977 83.254 161.977 L 79.564 161.977 79.568 151.884 C 79.573 141.710,79.619 140.824,80.192 140.056 C 81.391 138.451,83.258 138.020,85.091 138.926 M285.610 138.541 C 284.630 138.732,283.736 139.375,283.237 140.245 L 282.831 140.955 282.831 151.173 L 282.831 161.390 286.479 161.435 L 290.127 161.481 290.080 151.106 L 290.034 140.732 289.529 140.015 C 288.696 138.829,287.135 138.242,285.610 138.541 M323.123 142.739 C 324.367 143.311,325.181 144.056,325.701 145.099 C 326.491 146.685,326.919 146.566,320.424 146.566 L 314.718 146.566 314.830 146.189 C 315.789 142.974,319.907 141.262,323.123 142.739 M133.569 142.709 C 131.556 143.136,128.978 145.531,128.978 146.974 C 128.978 147.026,131.587 147.069,134.775 147.069 L 140.572 147.069 140.459 146.608 C 139.787 143.880,136.587 142.070,133.569 142.709 M104.050 143.395 C 100.599 144.074,98.331 147.586,98.963 151.271 C 100.067 157.710,108.177 158.970,110.942 153.132 C 113.285 148.188,109.178 142.386,104.050 143.395 " stroke="none" fill="#ffffff" fill-rule="evenodd"></path><path id="path1" d="M197.934 90.564 C 197.873 90.625,197.822 115.123,197.822 145.004 L 197.822 199.333 282.538 199.287 L 367.253 199.240 368.888 198.863 C 380.516 196.176,388.529 187.157,389.603 175.544 C 389.840 172.978,389.848 117.103,389.611 114.429 C 388.461 101.439,378.525 91.630,365.494 90.622 C 363.122 90.438,198.117 90.381,197.934 90.564 M288.715 124.311 C 291.595 125.388,293.083 129.046,291.775 131.833 C 289.181 137.364,280.718 135.648,280.718 129.591 C 280.718 125.439,284.701 122.809,288.715 124.311 M81.373 124.923 C 76.730 126.610,76.374 132.894,80.802 135.019 C 85.581 137.313,90.660 132.411,88.365 127.720 C 87.154 125.245,83.981 123.976,81.373 124.923 M286.048 125.565 C 285.983 125.631,285.930 127.082,285.930 128.790 L 285.930 131.896 285.211 131.191 C 284.460 130.453,283.863 130.289,283.679 130.768 C 283.554 131.096,285.995 133.668,286.432 133.668 C 286.850 133.668,289.344 131.063,289.225 130.752 C 289.050 130.297,288.466 130.457,287.688 131.174 L 286.942 131.862 286.897 128.703 C 286.850 125.468,286.700 124.914,286.048 125.565 M84.711 127.341 C 85.381 128.006,85.930 128.685,85.930 128.848 C 85.930 129.355,85.210 129.199,84.590 128.559 C 83.758 127.701,83.752 127.716,83.752 130.884 C 83.752 133.267,83.707 133.833,83.501 134.003 C 82.892 134.509,82.757 133.973,82.709 130.850 L 82.663 127.898 81.973 128.522 C 80.329 130.008,80.139 129.001,81.756 127.373 C 83.265 125.854,83.215 125.854,84.711 127.341 M277.554 129.899 L 277.554 132.998 269.765 132.998 L 261.977 132.998 261.977 137.184 L 261.977 141.370 268.970 141.414 L 275.963 141.457 275.963 144.556 L 275.963 147.655 268.970 147.699 L 261.977 147.742 261.977 154.692 L 261.977 161.642 258.710 161.642 L 255.444 161.642 255.444 144.221 L 255.444 126.801 266.499 126.801 L 277.554 126.801 277.554 129.899 M302.471 144.179 L 302.429 161.558 299.288 161.603 L 296.147 161.649 296.147 144.225 L 296.147 126.801 299.331 126.801 L 302.514 126.801 302.471 144.179 M44.891 144.556 L 44.891 161.977 48.157 161.977 L 51.424 161.977 51.424 154.606 L 51.424 147.236 58.710 147.236 L 65.997 147.236 65.997 154.606 L 65.997 161.977 69.263 161.977 L 72.529 161.977 72.529 144.556 L 72.529 127.136 69.263 127.136 L 65.997 127.136 65.997 134.087 L 65.997 141.039 58.710 141.039 L 51.424 141.039 51.424 134.087 L 51.424 127.136 48.157 127.136 L 44.891 127.136 44.891 144.556 M92.909 127.247 C 92.848 127.309,92.797 135.148,92.797 144.668 L 92.797 161.977 95.812 161.977 L 98.827 161.977 98.827 160.553 C 98.827 158.931,98.997 158.765,99.660 159.739 C 101.362 162.237,105.787 163.439,109.386 162.381 C 119.781 159.323,121.045 143.484,111.287 138.558 C 107.269 136.530,101.960 137.333,99.780 140.299 C 99.196 141.094,98.699 141.303,98.916 140.662 C 98.986 140.454,99.077 137.326,99.118 133.710 L 99.192 127.136 96.106 127.136 C 94.409 127.136,92.970 127.186,92.909 127.247 M323.416 137.281 C 328.773 138.369,332.017 142.581,332.278 148.786 L 332.375 151.089 323.369 151.089 L 314.363 151.089 314.471 151.768 C 315.348 157.252,323.459 158.505,326.482 153.624 L 326.728 153.228 329.367 154.550 L 332.007 155.871 331.314 156.872 C 325.132 165.796,311.110 163.431,308.439 153.015 C 306.049 143.697,313.981 135.364,323.416 137.281 M133.333 137.449 C 125.600 138.790,121.022 145.560,122.714 153.150 C 125.048 163.610,139.208 166.332,145.490 157.528 C 146.465 156.163,146.584 156.334,143.705 154.968 C 140.757 153.569,140.993 153.616,140.546 154.339 C 137.673 158.987,129.721 157.502,128.750 152.136 L 128.652 151.591 137.599 151.591 L 146.546 151.591 146.661 150.821 C 147.207 147.178,145.309 142.236,142.460 139.881 C 140.341 138.130,136.030 136.981,133.333 137.449 M163.484 137.826 C 161.571 138.467,159.939 139.644,159.114 140.979 C 158.571 141.857,158.459 141.666,158.459 139.866 L 158.459 138.191 155.444 138.191 L 152.429 138.191 152.429 150.084 L 152.429 161.977 155.611 161.977 L 158.794 161.977 158.797 155.821 C 158.800 149.171,158.896 148.184,159.688 146.620 C 160.950 144.129,163.761 142.975,166.573 143.792 C 167.756 144.136,167.566 144.371,168.414 141.511 C 168.806 140.192,169.181 138.941,169.249 138.731 C 169.560 137.768,165.543 137.137,163.484 137.826 M82.422 138.542 C 81.193 138.782,80.006 139.924,79.725 141.135 C 79.641 141.497,79.571 146.334,79.568 151.884 L 79.564 161.977 83.254 161.977 L 86.944 161.977 86.898 151.452 L 86.851 140.928 86.347 140.113 C 85.556 138.834,84.037 138.226,82.422 138.542 M288.273 138.926 C 288.716 139.145,289.233 139.593,289.529 140.015 L 290.034 140.732 290.080 151.106 L 290.127 161.481 286.479 161.435 L 282.831 161.390 282.831 151.173 L 282.831 140.955 283.237 140.245 C 284.221 138.528,286.344 137.972,288.273 138.926 M318.677 142.436 C 316.859 143.037,315.324 144.535,314.830 146.189 L 314.718 146.566 320.424 146.566 C 326.919 146.566,326.491 146.685,325.701 145.099 C 324.595 142.881,321.212 141.598,318.677 142.436 M137.261 143.060 C 138.805 143.637,140.074 145.045,140.459 146.608 L 140.572 147.069 134.775 147.069 C 131.587 147.069,128.978 147.026,128.978 146.974 C 128.978 146.923,129.185 146.458,129.438 145.942 C 130.837 143.085,134.107 141.880,137.261 143.060 M106.286 143.399 C 113.331 144.701,113.318 155.396,106.269 156.783 C 103.665 157.295,100.820 155.834,99.610 153.365 C 97.587 149.232,99.815 144.229,104.050 143.395 C 105.071 143.194,105.182 143.194,106.286 143.399 " stroke="none" fill="#040404" fill-rule="evenodd"></path></g></svg>